<?xml version="1.0" encoding="utf-8"?>
<!-- Generator: Adobe Illustrator 25.4.1, SVG Export Plug-In . SVG Version: 6.00 Build 0)  -->
<svg version="1.1" id="Layer_1" xmlns="http://www.w3.org/2000/svg" xmlns:xlink="http://www.w3.org/1999/xlink" x="0px" y="0px"
	 viewBox="0 0 133 120" style="enable-background:new 0 0 133 120;" xml:space="preserve">
<style type="text/css">
	.st0{stroke:#000000;stroke-width:0.25;stroke-miterlimit:10;}
</style>
<g>
	<path d="M27.29,97.82V95.8c8.68-0.32,10.03-1.59,10.03-9.87V39.36c0-8.38-1.24-9.23-10.03-9.76v-2.02H58v2.02
		c-8.69,0.42-10.13,1.7-10.13,9.76v46.57c0,7.96,1.65,9.55,10.13,9.87v2.02H27.29z"/>
</g>
<text transform="matrix(1 0 0 1 207.6279 98.0813)" style="font-family:'Luminari-Regular'; font-size:12px;">R</text>
<g>
	<path class="st0" d="M65.6,29.84l7.12-4.22c0.12,2.92,0.09,5.35-0.08,7.28l-0.4,4.47L72.12,39c4.71,1.11,8.96,2.48,12.75,4.13
		c3.79,1.64,7.2,3.53,10.22,5.67s5.43,4.4,7.23,6.77c1.8,2.37,3.02,4.85,3.66,7.44c0.83,3.37,0.71,6.67-0.33,9.91
		c-1.05,3.24-2.95,6.32-5.7,9.22c-2.75,2.91-6.21,5.49-10.36,7.74c-4.16,2.26-8.77,4.01-13.85,5.25
		c-7.85,1.93-16.63,2.92-26.34,2.97h-1.87c-3.15,2.21-6.26,4.04-9.35,5.48c-3.09,1.44-6.32,2.58-9.71,3.41
		c-3.53,0.87-6.5,1.11-8.91,0.72c-2.41-0.39-3.8-1.32-4.17-2.81c-0.29-1.17,0.06-2.32,1.05-3.47s2.5-2.24,4.55-3.25
		c2.04-1.02,4.5-1.88,7.37-2.58c4.04-0.99,10.79-1.74,20.24-2.24l1.71-0.06c2.52-2.74,4.74-6.26,6.68-10.54
		c2.84-6.29,5.07-14.97,6.69-26.03c0.88-5.53,1.43-10.3,1.65-14.3c-3.88-1-8.15-1.72-12.79-2.16s-9.16-0.56-13.55-0.38
		c-4.39,0.19-8.23,0.68-11.52,1.49c-3.9,0.96-6.86,2.35-8.88,4.16s-2.77,3.78-2.26,5.88c0.33,1.33,1.25,2.52,2.78,3.56
		s3.52,1.91,5.98,2.57c2.46,0.67,5.43,1.1,8.92,1.31l-3.65,4.03c-4.5-0.47-8.2-1.57-11.09-3.3c-2.89-1.73-4.65-3.87-5.28-6.42
		c-0.52-2.14-0.17-4.22,1.08-6.26c1.24-2.04,3.24-3.87,5.98-5.51c2.74-1.63,5.97-2.91,9.68-3.82c9.54-2.34,21.15-2.36,34.83-0.06
		C65.93,34.82,65.94,32.26,65.6,29.84z M44.82,98.08c-8.85,0.29-15.72,1.03-20.61,2.23c-2.07,0.51-3.62,1.14-4.66,1.89
		c-1.04,0.75-1.45,1.55-1.25,2.39c0.22,0.91,1.33,1.46,3.32,1.65c1.99,0.2,4.35-0.04,7.08-0.71C34.2,104.19,39.58,101.7,44.82,98.08
		z M53.28,93.28l2.01-0.03c6.18-0.21,11.24-0.53,15.17-0.95c3.94-0.42,7.64-1.05,11.12-1.91c4.89-1.2,9.12-3.1,12.7-5.69
		c3.57-2.59,6.17-5.61,7.79-9.07c1.62-3.45,2.01-6.89,1.17-10.32c-2.19-8.93-12.72-16.09-31.59-21.47
		c-0.09,1.46-0.47,4.37-1.15,8.72c-1.16,6.87-2.27,12.08-3.34,15.64C64.05,78.85,59.42,87.21,53.28,93.28z"/>
</g>
<g>
	<g>
		<path d="M210.98,64.79v-0.23c0.98-0.04,1.13-0.18,1.13-1.12v-5.27c0-0.95-0.14-1.04-1.13-1.1v-0.23h3.48v0.23
			c-0.98,0.05-1.15,0.19-1.15,1.1v5.27c0,0.9,0.19,1.08,1.15,1.12v0.23H210.98z"/>
		<path d="M218.04,62.46V61.7h2.88v0.76H218.04z"/>
		<path d="M229.6,59.23c-0.14-0.53-0.27-0.84-0.48-1.13c-0.41-0.54-1-0.94-1.7-0.94c-0.73,0-1.18,0.48-1.18,1.14
			c0,0.82,0.87,1.32,2.09,2.05c1.24,0.74,1.81,1.44,1.81,2.35c0,1.34-1.03,2.24-2.39,2.24c-0.49,0-0.95-0.08-1.38-0.28
			c-0.22-0.1-0.42-0.13-0.55-0.13c-0.18,0-0.33,0.14-0.33,0.4h-0.26l-0.34-2.54h0.26c0.54,1.45,1.3,2.12,2.41,2.12
			c0.82,0,1.39-0.55,1.39-1.34c0-0.42-0.12-0.7-0.34-0.95c-0.41-0.46-1.22-0.98-1.97-1.39c-1.05-0.58-1.43-1.32-1.43-2.06
			c0-1.31,0.88-2.1,2.04-2.1c0.48,0,0.78,0.07,1.23,0.26c0.21,0.1,0.4,0.14,0.51,0.14c0.2,0,0.33-0.14,0.37-0.41h0.25l0.26,2.55
			h-0.27V59.23z"/>
		<path d="M237.36,58.89c-0.26-1.32-0.56-1.54-1.8-1.54h-0.69v6.1c0,0.91,0.16,1.06,1.12,1.1v0.23h-3.42v-0.23
			c0.97-0.06,1.1-0.19,1.1-1.25v-5.96h-0.7c-1.24,0-1.56,0.22-1.79,1.54h-0.28l0.08-2.04h6.58l0.08,2.04L237.36,58.89L237.36,58.89z
			"/>
		<path d="M238.05,64.79v-0.23c0.98-0.04,1.13-0.18,1.13-1.12v-5.27c0-0.95-0.14-1.04-1.13-1.1v-0.23h3.48v0.23
			c-0.98,0.05-1.15,0.19-1.15,1.1v5.27c0,0.9,0.19,1.08,1.15,1.12v0.23H238.05z"/>
		<path d="M246.51,64.79v-0.23l0.3-0.02c0.38-0.02,0.58-0.13,0.58-0.35c0-0.19-0.2-0.56-0.6-1.18l-1.11-1.69l-1.38,1.79
			c-0.43,0.55-0.62,0.89-0.62,1.07c0,0.23,0.21,0.34,0.89,0.38v0.23h-2.71v-0.23c0.61-0.06,0.8-0.2,1.7-1.37l1.83-2.34l-1.24-1.86
			c-1.12-1.69-1.37-1.83-2.14-1.92v-0.23h3.52v0.23l-0.34,0.01c-0.33,0.01-0.54,0.07-0.54,0.35c0,0.35,0.35,0.8,0.97,1.74l0.51,0.77
			l1.31-1.68c0.35-0.44,0.47-0.62,0.47-0.8c0-0.28-0.16-0.36-0.8-0.38v-0.23h2.77v0.23c-0.75,0.05-1.04,0.25-1.78,1.19l-1.67,2.12
			l2.25,3.29c0.46,0.67,0.68,0.82,1.3,0.89v0.23h-3.47V64.79z"/>
		<path d="M258.48,60.76c-0.68,0.06-0.82,0.18-0.82,0.96v2.4c-0.64,0.54-1.77,0.84-2.97,0.84c-1.19,0-2.39-0.46-3.16-1.28
			c-0.66-0.71-0.97-1.63-0.97-2.81c0-1.32,0.47-2.42,1.25-3.15c0.7-0.66,1.66-1.03,2.8-1.03c0.63,0,1.03,0.1,1.56,0.28
			c0.22,0.08,0.4,0.12,0.51,0.12c0.25,0,0.46-0.17,0.53-0.4h0.26l0.09,2.53h-0.27c-0.29-0.73-0.48-1.04-0.83-1.39
			c-0.45-0.43-1.05-0.66-1.71-0.66c-0.81,0-1.45,0.3-1.95,0.83c-0.62,0.64-0.9,1.73-0.9,2.91c0,2.23,1.24,3.57,3.08,3.57
			c0.9,0,1.56-0.34,1.56-0.73v-1.88c0-0.94-0.12-1.03-1.04-1.1v-0.22h3v0.21H258.48z"/>
		<path d="M263.59,62.9c-0.46,1.31-1.28,2-2.45,2c-1.38,0-2.22-1.07-2.22-2.72c0-1.69,0.95-2.91,2.42-2.91
			c0.73,0,1.25,0.29,1.63,0.83c0.23,0.34,0.35,0.72,0.4,1.37h-3.61c0.06,0.91,0.12,1.38,0.54,1.96c0.33,0.44,0.76,0.66,1.3,0.66
			c0.78,0,1.23-0.37,1.8-1.26L263.59,62.9z M262.17,61.08c-0.13-0.97-0.37-1.38-1.15-1.38c-0.66,0-1.11,0.48-1.24,1.38H262.17z"/>
		<path d="M267.06,64.79l0.01-0.18c0.58-0.05,0.73-0.29,0.73-1.08v-2.39c0-0.85-0.28-1.21-0.85-1.21c-0.39,0-0.67,0.14-1.21,0.68
			v3.31c0,0.47,0.16,0.64,0.76,0.68v0.18h-2.47V64.6c0.6-0.05,0.73-0.24,0.73-0.95v-2.91c0-0.59-0.08-0.78-0.41-0.78
			c-0.13,0-0.26,0.01-0.34,0.05v-0.2c0.64-0.19,1.03-0.32,1.6-0.54l0.09,0.04v0.94h0.01c0.61-0.71,1.15-0.97,1.69-0.97
			c0.89,0,1.38,0.66,1.38,1.85v2.65c0,0.65,0.14,0.78,0.71,0.84v0.18L267.06,64.79L267.06,64.79z"/>
		<path d="M274.63,62.9c-0.46,1.31-1.28,2-2.45,2c-1.38,0-2.22-1.07-2.22-2.72c0-1.69,0.95-2.91,2.42-2.91
			c0.73,0,1.25,0.29,1.63,0.83c0.23,0.34,0.35,0.72,0.4,1.37h-3.61c0.06,0.91,0.12,1.38,0.54,1.96c0.33,0.44,0.76,0.66,1.3,0.66
			c0.78,0,1.23-0.37,1.8-1.26L274.63,62.9z M273.22,61.08c-0.13-0.97-0.37-1.38-1.15-1.38c-0.66,0-1.11,0.48-1.24,1.38H273.22z"/>
		<path d="M276.73,60.4c0.59-0.86,0.91-1.13,1.41-1.13c0.4,0,0.64,0.24,0.64,0.64c0,0.34-0.18,0.54-0.46,0.54
			c-0.15,0-0.28-0.06-0.47-0.24c-0.13-0.12-0.23-0.18-0.3-0.18c-0.33,0-0.82,0.6-0.82,0.98v2.7c0,0.68,0.2,0.86,1,0.9v0.18h-2.81
			v-0.18c0.75-0.14,0.83-0.23,0.83-0.83v-3c0-0.53-0.11-0.72-0.4-0.72c-0.14,0-0.25,0.01-0.41,0.05v-0.19
			c0.69-0.23,1.11-0.4,1.73-0.65l0.06,0.02L276.73,60.4L276.73,60.4z"/>
		<path d="M283.91,64.33c-0.35,0.46-0.66,0.58-1.05,0.58c-0.43,0-0.69-0.24-0.75-0.88h-0.01c-0.62,0.72-1.19,0.88-1.7,0.88
			c-0.73,0-1.23-0.46-1.23-1.25c0-0.62,0.36-1.09,0.82-1.4c0.35-0.24,0.78-0.47,2.11-0.97v-0.65c0-0.74-0.39-1.08-0.91-1.08
			c-0.47,0-0.82,0.26-0.82,0.59c0,0.22,0.07,0.25,0.07,0.5c0,0.23-0.23,0.49-0.54,0.49c-0.25,0-0.5-0.23-0.5-0.55
			c0-0.31,0.19-0.7,0.6-0.96c0.33-0.22,0.82-0.36,1.35-0.36c0.66,0,1.1,0.19,1.38,0.54s0.33,0.6,0.33,1.33v2.29
			c0,0.55,0.15,0.79,0.36,0.79c0.19,0,0.3-0.06,0.5-0.23L283.91,64.33L283.91,64.33z M282.09,61.57c-0.73,0.26-1.21,0.52-1.5,0.79
			c-0.28,0.26-0.4,0.55-0.4,0.92c0,0.64,0.35,0.92,0.81,0.92c0.23,0,0.48-0.06,0.68-0.19c0.34-0.24,0.41-0.41,0.41-0.76V61.57z"/>
		<path d="M284.17,64.79v-0.18c0.74-0.06,0.9-0.26,0.9-0.92v-5.62c0-0.58-0.12-0.77-0.49-0.77c-0.09,0-0.25,0-0.43,0.02v-0.19
			c0.81-0.2,1.24-0.32,1.85-0.53l0.06,0.05v7.1c0,0.66,0.13,0.82,0.88,0.86v0.18L284.17,64.79L284.17,64.79z"/>
	</g>
	<g>
		<path class="st0" d="M215.45,71.04l0.93-0.28c-0.07,0.34-0.14,0.61-0.21,0.83l-0.17,0.5l-0.06,0.18c0.5,0.26,0.95,0.53,1.34,0.83
			c0.39,0.29,0.72,0.6,1,0.93s0.5,0.65,0.63,0.97s0.21,0.64,0.21,0.95c0,0.41-0.11,0.78-0.32,1.12s-0.51,0.64-0.91,0.89
			s-0.86,0.45-1.4,0.59c-0.54,0.14-1.11,0.21-1.72,0.21c-0.95,0-1.97-0.13-3.08-0.4l-0.21-0.05c-0.42,0.16-0.83,0.28-1.22,0.36
			s-0.79,0.12-1.2,0.12c-0.43,0-0.77-0.06-1.04-0.17c-0.26-0.11-0.4-0.26-0.4-0.44c0-0.14,0.07-0.26,0.22-0.37
			c0.14-0.1,0.35-0.18,0.61-0.24s0.56-0.09,0.91-0.09c0.49,0,1.28,0.1,2.37,0.31l0.2,0.04c0.36-0.24,0.71-0.58,1.06-1.01
			c0.5-0.64,1-1.56,1.49-2.78c0.25-0.61,0.45-1.13,0.59-1.58c-0.41-0.22-0.88-0.42-1.4-0.6s-1.03-0.32-1.53-0.42
			s-0.96-0.15-1.35-0.15c-0.47,0-0.85,0.08-1.13,0.23c-0.28,0.15-0.42,0.35-0.42,0.61c0,0.16,0.07,0.32,0.22,0.48
			s0.35,0.32,0.61,0.46c0.26,0.14,0.59,0.28,0.98,0.4l-0.53,0.36c-0.5-0.18-0.89-0.41-1.17-0.69s-0.42-0.57-0.42-0.88
			c0-0.26,0.1-0.49,0.3-0.68c0.2-0.2,0.48-0.35,0.83-0.46c0.36-0.11,0.76-0.16,1.21-0.16c1.15,0,2.47,0.32,3.97,0.97
			C215.34,71.62,215.42,71.33,215.45,71.04z M211.17,78.23c-1.02-0.22-1.82-0.32-2.41-0.32c-0.25,0-0.44,0.03-0.58,0.08
			c-0.14,0.06-0.21,0.14-0.21,0.24c0,0.11,0.11,0.2,0.33,0.28s0.5,0.12,0.83,0.12C209.79,78.63,210.47,78.5,211.17,78.23z
			 M212.27,77.92l0.23,0.05c0.71,0.15,1.29,0.25,1.75,0.32c0.46,0.06,0.9,0.09,1.32,0.09c0.59,0,1.12-0.1,1.61-0.29
			c0.48-0.19,0.86-0.47,1.14-0.81c0.28-0.35,0.42-0.73,0.42-1.14c0-1.08-1-2.19-3-3.33c-0.05,0.16-0.18,0.48-0.38,0.96
			c-0.32,0.75-0.6,1.31-0.82,1.69C213.9,76.58,213.14,77.4,212.27,77.92z"/>
		<path class="st0" d="M222.77,76.68l-0.08,0.26h-2.08l0.08-0.26H222.77z"/>
		<path class="st0" d="M224.11,78.45l0.47-0.59c0.96,0.36,1.89,0.55,2.79,0.55c0.6,0,1.15-0.07,1.65-0.22s0.89-0.35,1.17-0.61
			c0.29-0.26,0.43-0.54,0.43-0.85c0-0.3-0.13-0.57-0.39-0.8c-0.26-0.23-0.73-0.51-1.41-0.81c-0.67-0.31-1.07-0.49-1.21-0.56
			s-0.33-0.17-0.57-0.3c-0.41-0.25-0.62-0.55-0.62-0.89c0-0.61,0.58-1.2,1.74-1.77c0.32-0.16,0.69-0.3,1.11-0.43
			s0.83-0.23,1.23-0.29s0.78-0.1,1.13-0.1c0.52,0,0.92,0.07,1.22,0.2c0.29,0.13,0.44,0.32,0.44,0.56c0,0.29-0.18,0.61-0.54,0.94
			c-0.36,0.33-0.85,0.64-1.46,0.92l-0.68-0.26c0.42-0.19,0.78-0.39,1.06-0.59c0.29-0.2,0.51-0.39,0.67-0.57s0.24-0.35,0.24-0.51
			c0-0.11-0.04-0.2-0.13-0.27s-0.21-0.13-0.37-0.17s-0.36-0.06-0.6-0.06c-0.44,0-0.92,0.06-1.43,0.18
			c-0.51,0.12-0.99,0.28-1.43,0.47c-1,0.43-1.5,0.92-1.5,1.45c0,0.15,0.06,0.29,0.18,0.42s0.33,0.28,0.63,0.44
			c0.3,0.16,0.73,0.38,1.31,0.63c0.43,0.19,0.75,0.35,0.97,0.47s0.4,0.25,0.54,0.38c0.32,0.28,0.48,0.59,0.48,0.93
			c0,0.27-0.1,0.54-0.3,0.81c-0.2,0.27-0.49,0.53-0.86,0.77c-0.86,0.56-2.06,0.84-3.59,0.84C225.48,78.74,224.69,78.64,224.11,78.45
			z"/>
		<path class="st0" d="M237.18,75.14l-0.8,2.14c-0.08,0.23-0.13,0.42-0.13,0.55c0,0.12,0.04,0.22,0.11,0.3
			c0.07,0.09,0.17,0.13,0.27,0.13c0.17,0,0.44-0.14,0.82-0.42l0.12,0.08L237.48,78c-0.3,0.24-0.53,0.4-0.69,0.5s-0.3,0.14-0.42,0.14
			c-0.18,0-0.34-0.07-0.47-0.2s-0.2-0.28-0.2-0.45c0-0.12,0.07-0.41,0.2-0.85l0.07-0.22c-0.21,0.34-0.49,0.66-0.84,0.97
			c-0.59,0.52-1.16,0.77-1.7,0.77c-0.32,0-0.58-0.08-0.77-0.24s-0.28-0.38-0.28-0.64c0-0.37,0.15-0.75,0.46-1.15
			c0.3-0.4,0.68-0.73,1.13-0.99c0.45-0.26,0.89-0.39,1.32-0.39c0.45,0,0.78,0.11,1,0.34l0.09-0.22L237.18,75.14z M236.2,75.89
			c-0.07-0.15-0.18-0.27-0.34-0.35c-0.16-0.08-0.35-0.13-0.56-0.13c-0.25,0-0.51,0.08-0.79,0.24s-0.53,0.38-0.77,0.66
			c-0.18,0.22-0.33,0.47-0.46,0.74s-0.18,0.49-0.18,0.67c0,0.2,0.06,0.36,0.17,0.47s0.27,0.17,0.47,0.17c0.26,0,0.53-0.08,0.82-0.25
			c0.28-0.17,0.56-0.41,0.84-0.72c0.17-0.18,0.3-0.36,0.4-0.54c0.1-0.18,0.2-0.43,0.32-0.75L236.2,75.89z"/>
		<path class="st0" d="M238.28,75.42l0.77-0.24v0.15c0.02,0.57,0.07,1.17,0.14,1.8c0.04,0.33,0.08,0.57,0.12,0.73
			c0.03,0.16,0.07,0.27,0.12,0.32c0.04,0.05,0.11,0.08,0.19,0.08c0.21,0,0.58-0.28,1.12-0.83c0.48-0.48,0.72-0.93,0.72-1.34
			c0-0.14-0.03-0.27-0.08-0.36s-0.15-0.19-0.29-0.29l0.64-0.41c0.2,0.18,0.3,0.4,0.3,0.66c0,0.52-0.45,1.21-1.35,2.06
			c-0.27,0.26-0.56,0.49-0.87,0.69c-0.14,0.09-0.26,0.15-0.34,0.19s-0.17,0.06-0.26,0.06c-0.14,0-0.24-0.04-0.3-0.11
			s-0.11-0.21-0.14-0.42L238.28,75.42z"/>
		<path class="st0" d="M242.5,77.48c0-0.35,0.14-0.7,0.41-1.05c0.28-0.35,0.63-0.63,1.07-0.85s0.88-0.33,1.34-0.33
			c0.48,0,0.86,0.11,1.15,0.33s0.44,0.5,0.44,0.84c0,0.38-0.13,0.74-0.4,1.09s-0.62,0.64-1.07,0.86c-0.44,0.22-0.88,0.34-1.33,0.34
			c-0.48,0-0.87-0.11-1.17-0.34S242.5,77.85,242.5,77.48z M246.15,76.2c0-0.23-0.08-0.43-0.25-0.58s-0.38-0.23-0.64-0.23
			c-0.24,0-0.47,0.05-0.69,0.16c-0.22,0.11-0.42,0.26-0.6,0.46c-0.2,0.23-0.37,0.51-0.51,0.82c-0.13,0.31-0.2,0.59-0.2,0.83
			c0,0.29,0.08,0.51,0.25,0.67s0.4,0.23,0.71,0.23c0.49,0,0.93-0.24,1.3-0.71c0.19-0.24,0.35-0.51,0.46-0.81
			C246.09,76.74,246.15,76.46,246.15,76.2z"/>
		<path class="st0" d="M246.85,80.69l0.42-0.39c0.33,0.24,0.7,0.36,1.12,0.36c0.44,0,0.79-0.12,1.06-0.36s0.49-0.63,0.66-1.17
			l0.39-1.21c-0.62,0.5-1.19,0.76-1.7,0.75c-0.29,0-0.53-0.06-0.69-0.19c-0.17-0.12-0.25-0.29-0.25-0.5c0-0.14,0.03-0.29,0.08-0.46
			l0.58-2.1l0.83-0.24l-0.83,2.36c-0.07,0.19-0.1,0.33-0.1,0.43c0,0.13,0.06,0.24,0.17,0.33s0.27,0.13,0.46,0.13
			c0.21,0,0.44-0.06,0.69-0.19s0.54-0.32,0.85-0.57l0.73-2.24l0.8-0.24l-1.25,3.44c-0.15,0.41-0.29,0.74-0.42,0.97
			s-0.29,0.43-0.46,0.59c-0.56,0.49-1.23,0.74-2.04,0.74C247.48,80.93,247.12,80.85,246.85,80.69z"/>
		<path class="st0" d="M256.18,77.71l0.15,0.09c-0.35,0.32-0.7,0.55-1.03,0.69s-0.7,0.21-1.08,0.21c-0.46,0-0.83-0.11-1.11-0.32
			c-0.28-0.21-0.42-0.49-0.42-0.84s0.14-0.71,0.41-1.07c0.27-0.36,0.61-0.66,1.01-0.9c0.41-0.24,0.81-0.35,1.21-0.35
			c0.23,0,0.42,0.05,0.57,0.14s0.23,0.21,0.23,0.36c0,0.3-0.24,0.6-0.72,0.9s-1.13,0.56-1.95,0.77c-0.01,0.03-0.01,0.07-0.01,0.11
			c0,0.27,0.11,0.49,0.32,0.66c0.21,0.17,0.49,0.26,0.83,0.26c0.27,0,0.52-0.06,0.78-0.17C255.63,78.13,255.9,77.95,256.18,77.71z
			 M253.46,77.26c0.61-0.19,1.08-0.4,1.41-0.63c0.22-0.16,0.4-0.32,0.54-0.5s0.2-0.34,0.2-0.49c0-0.18-0.12-0.28-0.37-0.28
			c-0.37,0-0.74,0.2-1.12,0.6C253.75,76.37,253.53,76.8,253.46,77.26z"/>
		<path class="st0" d="M269.54,78.17l-0.37,0.57c-0.17,0.02-0.31,0.03-0.43,0.03c-0.25,0-0.59-0.03-1.01-0.08
			c-0.31-0.04-0.61-0.09-0.92-0.14c-0.3-0.06-0.7-0.14-1.18-0.24c-0.39-0.09-0.78-0.17-1.17-0.24c-0.35,0.23-0.77,0.41-1.24,0.54
			c-0.48,0.13-0.95,0.19-1.43,0.19c-0.56,0-1-0.07-1.34-0.21c-0.34-0.14-0.51-0.32-0.51-0.55c0-0.24,0.19-0.43,0.57-0.57
			s0.89-0.21,1.54-0.2c0.74,0,1.56,0.09,2.48,0.28c0.17-0.2,0.31-0.42,0.41-0.64s0.22-0.53,0.34-0.93l0.61-1.96
			c0.18-0.57,0.34-1.01,0.49-1.32s0.33-0.59,0.52-0.82c0.19-0.22,0.4-0.41,0.65-0.58c0.24-0.17,0.5-0.3,0.76-0.39
			s0.52-0.13,0.77-0.13c0.27,0,0.51,0.04,0.71,0.13c0.2,0.09,0.36,0.22,0.46,0.38c0.1,0.17,0.16,0.36,0.16,0.58
			c0,0.2-0.05,0.45-0.16,0.76c-0.11,0.3-0.25,0.59-0.42,0.84l-0.79,0.08c0.24-0.3,0.44-0.63,0.6-0.99s0.24-0.65,0.24-0.9
			c0-0.23-0.07-0.41-0.21-0.53s-0.35-0.19-0.62-0.19c-0.58,0-1.07,0.27-1.46,0.8c-0.12,0.17-0.23,0.35-0.31,0.52
			c-0.08,0.18-0.18,0.47-0.32,0.88l-0.76,2.44c-0.17,0.52-0.34,0.94-0.51,1.25c-0.18,0.31-0.4,0.58-0.67,0.81l0.21,0.05
			c0.86,0.2,1.54,0.34,2.06,0.42c0.52,0.08,0.97,0.13,1.35,0.13C268.91,78.23,269.21,78.21,269.54,78.17z M264.07,77.97l-0.2-0.04
			c-1.02-0.21-1.79-0.32-2.33-0.32c-0.86,0-1.29,0.15-1.29,0.46c0,0.16,0.15,0.29,0.44,0.4s0.67,0.16,1.12,0.16
			c0.43,0,0.85-0.06,1.24-0.18S263.78,78.18,264.07,77.97z"/>
		<path class="st0" d="M277.58,77.35l-0.21,0.7c-0.72,0.23-1.43,0.41-2.12,0.54c-0.7,0.12-1.33,0.19-1.89,0.19
			c-0.62,0-1.17-0.06-1.63-0.19c-0.46-0.12-0.81-0.3-1.06-0.54c-0.25-0.23-0.37-0.51-0.37-0.83c0-0.53,0.35-1.05,1.04-1.57
			c0.69-0.52,1.68-1,2.96-1.44c-0.61-0.07-0.92-0.29-0.92-0.66c0-0.52,0.66-1.11,1.98-1.76c0.41-0.2,0.83-0.38,1.25-0.54
			s0.82-0.27,1.19-0.35c0.37-0.08,0.7-0.12,0.98-0.12c0.29,0,0.53,0.06,0.69,0.17c0.17,0.11,0.25,0.26,0.25,0.45
			c0,0.18-0.06,0.38-0.19,0.6s-0.31,0.46-0.56,0.71s-0.52,0.47-0.82,0.67l-0.45-0.34c0.89-0.67,1.33-1.21,1.33-1.6
			c0-0.27-0.23-0.4-0.7-0.4c-0.29,0-0.66,0.06-1.09,0.18s-0.86,0.28-1.29,0.49c-0.57,0.27-1.02,0.55-1.35,0.85s-0.5,0.57-0.5,0.8
			c0,0.11,0.05,0.22,0.16,0.32s0.23,0.17,0.39,0.22c0.16,0.04,0.43,0.06,0.83,0.08h0.15l-0.11,0.38c-0.86,0.25-1.72,0.6-2.58,1.04
			c-1.43,0.73-2.15,1.41-2.15,2.05c0,0.32,0.18,0.58,0.54,0.78c0.36,0.2,0.82,0.3,1.38,0.3c0.39,0,0.82-0.04,1.3-0.12
			c0.47-0.08,1-0.21,1.58-0.37S276.83,77.62,277.58,77.35z"/>
		<path class="st0" d="M278.45,78.85l0.32-0.53c0.53,0.16,1.12,0.23,1.75,0.24c0.74,0,1.4-0.14,1.98-0.41
			c0.58-0.28,1.09-0.7,1.55-1.26c0.15-0.19,0.29-0.4,0.43-0.64c0.14-0.24,0.32-0.58,0.53-1.01c0.18-0.36,0.35-0.75,0.52-1.16
			c0.17-0.42,0.31-0.8,0.43-1.14c0.12-0.34,0.23-0.73,0.34-1.15l0.91-0.28l-0.06-0.01l-0.17-0.02c-1.29-0.11-2.52-0.17-3.71-0.17
			c-0.61,0-1.12,0.03-1.53,0.08s-0.77,0.14-1.06,0.26c-0.4,0.17-0.6,0.39-0.6,0.66c0,0.55,1,0.86,3,0.94l-0.58,0.42
			c-0.54-0.02-1.02-0.09-1.42-0.21c-0.4-0.11-0.71-0.26-0.93-0.45s-0.33-0.4-0.33-0.64c0-0.48,0.44-0.87,1.32-1.16
			c0.74-0.25,1.84-0.37,3.28-0.37c0.39,0,0.89,0.02,1.5,0.05s1.24,0.07,1.89,0.12c0.65,0.05,1.19,0.1,1.63,0.16l0.15,0.02
			l-0.38,0.53l-0.15-0.02c-0.5-0.06-1.08-0.13-1.75-0.19l-0.06-0.01l-0.03,0.08l-0.03,0.08c-0.45,1.41-0.91,2.57-1.39,3.48
			s-1.01,1.64-1.61,2.19c-0.6,0.55-1.29,0.94-2.08,1.19c-0.79,0.25-1.73,0.37-2.81,0.37C279.01,78.9,278.73,78.88,278.45,78.85z"/>
	</g>
</g>
</svg>
